<?xml version="1.0" encoding="UTF-8" standalone="no"?>
<!-- Created with Inkscape (http://www.inkscape.org/) -->

<svg
   width="163"
   height="113"
   viewBox="0 0 43.127077 29.897912"
   version="1.1"
   id="svg5"
   xml:space="preserve"
   sodipodi:docname="coursehawk.svg"
   inkscape:version="1.2.2 (732a01da63, 2022-12-09)"
   xmlns:inkscape="http://www.inkscape.org/namespaces/inkscape"
   xmlns:sodipodi="http://sodipodi.sourceforge.net/DTD/sodipodi-0.dtd"
   xmlns="http://www.w3.org/2000/svg"
   xmlns:svg="http://www.w3.org/2000/svg"><sodipodi:namedview
     id="namedview8"
     pagecolor="#000000"
     bordercolor="#000000"
     borderopacity="0.25"
     inkscape:showpageshadow="2"
     inkscape:pageopacity="1"
     inkscape:pagecheckerboard="0"
     inkscape:deskcolor="#d1d1d1"
     inkscape:document-units="mm"
     showgrid="false"
     inkscape:zoom="2.0888418"
     inkscape:cx="129.4976"
     inkscape:cy="58.405571"
     inkscape:window-width="1920"
     inkscape:window-height="1009"
     inkscape:window-x="-8"
     inkscape:window-y="-8"
     inkscape:window-maximized="1"
     inkscape:current-layer="svg5" /><defs
     id="defs2" /><g
     id="layer1"
     transform="translate(-84.258971,-110.43456)"><path
       id="path288"
       style="display:inline;fill:#ffffff;stroke-width:0.264583"
       d="m 127.18345,110.4346 -29.736168,7.0311 -10.792623,7.52305 c 0,0 -0.357922,1.38838 -0.04444,1.47795 0.313479,0.0896 1.388029,2.10478 1.388029,2.10478 l -3.717086,3.09025 v 1.61231 l 0.716753,2.37349 3.672127,1.92547 -1.298629,-2.68718 2.284098,-1.02991 8.597925,0.49248 9.942024,6.22494 5.32888,-0.1788 -10.74767,-7.21041 1.16427,-1.16427 11.77809,7.34425 2.73162,-2.5523 -13.6586,-7.43417 0.8506,-1.47794 12.8974,6.89673 1.56786,-4.34392 -13.74851,-4.34392 0.85059,-1.56734 13.3904,4.25452 1.43299,-4.25452 -14.33039,-1.97043 0.89555,-1.56734 14.06167,1.74614 1.34359,-3.35845 -13.92731,-0.89555 0.13435,-0.98547 15.40527,-2.91093 z m -31.191376,12.02408 0.246496,4.83639 -1.522904,1.32137 -4.858618,-0.045 -0.851111,-1.88051 z" /><path
       style="display:inline;fill:#ffffff;stroke-width:0.264583"
       d="m 94.505622,125.03018 -2.944474,2.0712 3.157194,0.0672 z"
       id="path346" /></g></svg>
